<?xml version="1.0" encoding="UTF-8" standalone="no"?>
<svg
   xmlns:dc="http://purl.org/dc/elements/1.1/"
   xmlns:cc="http://creativecommons.org/ns#"
   xmlns:rdf="http://www.w3.org/1999/02/22-rdf-syntax-ns#"
   xmlns:svg="http://www.w3.org/2000/svg"
   xmlns="http://www.w3.org/2000/svg"
   id="svg8"
   version="1.1"
   viewBox="0 0 150 50"
   height="50mm"
   width="150mm">
  <defs
     id="defs2" />
  <metadata
     id="metadata5">
    <rdf:RDF>
      <cc:Work
         rdf:about="">
        <dc:format>image/svg+xml</dc:format>
        <dc:type
           rdf:resource="http://purl.org/dc/dcmitype/StillImage" />
        <dc:title></dc:title>
      </cc:Work>
    </rdf:RDF>
  </metadata>
  <g
     id="layer1">
    <path
       id="path3727"
       d="m 124.02526,10.162147 c 0,0 -10.89122,-3.5413197 -20.57974,8.619451 -9.688515,12.16076 -0.77888,20.756461 9.9119,23.09506 10.69078,2.33861 21.41425,-0.18419 22.89543,-6.72479 1.48118,-6.5406 0.66817,-22.450661 -12.22759,-24.989721 z"
       style="display:inline;fill:#d79828;fill-opacity:1;stroke:#d79828;stroke-width:0.465;stroke-linecap:butt;stroke-linejoin:miter;stroke-miterlimit:4;stroke-dasharray:none;stroke-opacity:1" />
    <path
       id="path3729"
       d="m 118.44601,23.659268 c -3.30745,-1.01896 -9.38783,0.0668 -12.7287,4.81085 -4.86637,6.910249 3.60814,10.35669 3.60814,10.35669 0,0 15.50163,6.080379 16.37026,-1.737251 0.86863,-7.817629 -3.94222,-12.411329 -7.2497,-13.430289 z"
       style="display:inline;fill:#ffffff;fill-opacity:1;stroke:#d79828;stroke-width:0.36500001;stroke-linecap:butt;stroke-linejoin:miter;stroke-miterlimit:4;stroke-dasharray:none;stroke-opacity:1" />
    <path
       id="path3731"
       d="m 115.94037,29.338738 c 0,0 -2.07134,-2.47224 -1.60362,-3.34087 0.46773,-0.86862 2.34956,-1.07521 3.63986,-0.44005 1.29032,0.63517 2.181,1.94953 1.84693,2.6177 -0.33409,0.66818 -1.94547,1.02959 -3.88317,1.16322 z"
       style="display:inline;fill:#d79828;fill-opacity:1;stroke:none;stroke-width:0.26458332px;stroke-linecap:butt;stroke-linejoin:miter;stroke-opacity:1" />
    <path
       id="path3733"
       d="m 117.27672,33.848919 c 0,0 1.87089,0.668168 1.40317,2.004518"
       style="display:inline;fill:none;stroke:#d79828;stroke-width:0.56500006;stroke-linecap:butt;stroke-linejoin:miter;stroke-miterlimit:4;stroke-dasharray:none;stroke-opacity:1" />
    <path
       id="path3735"
       d="m 109.52591,32.779838 c 0,0 0.46772,-1.13589 2.33861,-0.46772"
       style="display:inline;fill:none;stroke:#d79828;stroke-width:0.56500006;stroke-linecap:butt;stroke-linejoin:miter;stroke-miterlimit:4;stroke-dasharray:none;stroke-opacity:1" />
    <path
       id="path3737"
       d="m 115.99466,29.225988 -2.32607,5.35792 m 0,0 c 0,0 1.45724,1.23961 2.47223,1.11919 0.98556,-0.11692 2.29556,-1.012881 2.29556,-1.012881"
       style="display:inline;fill:none;stroke:#d79828;stroke-width:0.56500006;stroke-linecap:butt;stroke-linejoin:miter;stroke-miterlimit:4;stroke-dasharray:none;stroke-opacity:1" />
    <path
       id="path3739"
       d="m 113.66859,34.583908 c 0,0 -1.60362,0.334089 -2.20498,-0.267269 -0.60136,-0.601361 -0.83318,-2.247472 -0.83318,-2.247472"
       style="display:inline;fill:none;stroke:#d79828;stroke-width:0.56500006;stroke-linecap:butt;stroke-linejoin:miter;stroke-miterlimit:4;stroke-dasharray:none;stroke-opacity:1" />
    <path
       id="path4548"
       d="m 122.7986,24.535508 c -0.2958,-0.31363 -0.94218,-1.46506 0.27283,-2.73893 0.93972,-0.93558 2.0058,-0.72179 2.54957,-0.10338 0.5438,0.61842 0.62381,2.00058 -0.51978,2.92114 -1.13497,0.91364 -2.00639,0.23437 -2.3026,-0.0789 z"
       style="display:inline;fill:#ffffff;fill-opacity:1;stroke:none;stroke-width:0.32198954px;stroke-linecap:butt;stroke-linejoin:miter;stroke-opacity:1" />
    <path
       id="path4548-3"
       d="m 117.31804,19.220198 c 0.24318,0.35719 0.571,1.71057 -0.82715,2.77329 -1.07361,0.77289 -2.09297,0.39059 -2.5336,-0.30739 -0.44063,-0.69799 -0.30434,-2.07559 0.96827,-2.80089 1.26302,-0.71986 2.14879,-0.0218 2.39248,0.33499 z"
       style="display:inline;fill:#ffffff;fill-opacity:1;stroke:none;stroke-width:0.32198954px;stroke-linecap:butt;stroke-linejoin:miter;stroke-opacity:1" />
    <path
       id="path4565"
       d="m 109.42118,13.215717 c 0,0 -3.04743,-4.7483297 1.63003,-7.2760397 4.67745,-2.52772 8.31546,1.96075 8.19735,3.5907701 -6.16573,0.4724696 -9.82738,3.6852696 -9.82738,3.6852696 z"
       style="display:inline;fill:#d79828;fill-opacity:1;stroke:none;stroke-width:0.26458332px;stroke-linecap:butt;stroke-linejoin:miter;stroke-opacity:1" />
    <path
       id="path4567"
       d="m 131.89137,14.800537 c 2.07306,-2.23767 6.98222,-2.02024 8.60366,1.941231 1.41739,3.46291 -1.56063,7.06077 -4.53425,7.37803 -1.01902,-4.0276 -1.65768,-6.07027 -4.06941,-9.319261 z"
       style="display:inline;fill:#d79828;fill-opacity:1;stroke:none;stroke-width:0.26458332px;stroke-linecap:butt;stroke-linejoin:miter;stroke-opacity:1" />
    <path
       id="path4567-5"
       d="m 133.22335,16.222308 c 1.31458,-1.418971 4.42763,-1.281091 5.45583,1.231 0.89881,2.19594 -1.01083,4.11728 -2.89648,4.31847 -0.64621,-2.55401 -1.03001,-3.48919 -2.55935,-5.54947 z"
       style="display:inline;fill:#d79828;fill-opacity:1;stroke:none;stroke-width:0.16778028px;stroke-linecap:butt;stroke-linejoin:miter;stroke-opacity:1" />
    <path
       id="path4565-6"
       d="m 110.9181,12.258907 c 0,0 -2.03928,-3.1774895 1.09079,-4.8689896 3.13006,-1.6915001 5.56456,1.3121 5.48552,2.40288 -4.126,0.3161596 -6.57631,2.4661096 -6.57631,2.4661096 z"
       style="display:inline;fill:#d79828;fill-opacity:1;stroke:none;stroke-width:0.17705424px;stroke-linecap:butt;stroke-linejoin:miter;stroke-opacity:1" />
    <path
       id="path4548-6"
       d="m 123.25172,22.955398 c 0.24607,-6.09e-4 0.97511,0.15637 1.01574,1.02902 0.0109,0.65806 -0.49972,0.9715 -0.96932,0.95839 -0.46959,-0.0131 -1.06855,-0.45355 -0.99253,-1.18034 0.0755,-0.72132 0.70002,-0.80618 0.94611,-0.80707 z"
       style="display:inline;fill:#d79828;fill-opacity:1;stroke:none;stroke-width:0.17140901px;stroke-linecap:butt;stroke-linejoin:miter;stroke-opacity:1" />
    <path
       id="path4548-6-7"
       d="m 114.61977,20.325538 c 0.24607,-6.09e-4 0.97511,0.15638 1.01574,1.02903 0.0109,0.65805 -0.49973,0.9715 -0.96932,0.95839 -0.46959,-0.0131 -1.06855,-0.45355 -0.99253,-1.18034 0.0755,-0.72132 0.70002,-0.80618 0.94611,-0.80708 z"
       style="display:inline;fill:#d79828;fill-opacity:1;stroke:none;stroke-width:0.17140901px;stroke-linecap:butt;stroke-linejoin:miter;stroke-opacity:1" />
    <text
       id="text841"
       y="26.099802"
       x="15.706023"
       style="font-style:normal;font-weight:normal;font-size:12.07300091px;line-height:1.25;font-family:sans-serif;letter-spacing:0px;word-spacing:0px;display:inline;fill:#c18824;fill-opacity:1;stroke:none;stroke-width:0.30182502"
       xml:space="preserve"><tspan
         style="font-style:normal;font-variant:normal;font-weight:normal;font-stretch:normal;font-size:20.12166977px;font-family:Sacramento;-inkscape-font-specification:'Sacramento, Normal';font-variant-ligatures:normal;font-variant-caps:normal;font-variant-numeric:normal;font-feature-settings:normal;text-align:start;writing-mode:lr-tb;text-anchor:start;fill:#c18824;fill-opacity:1;stroke-width:0.30182502"
         y="26.099802"
         x="15.706023"
         id="tspan839">B`Honey</tspan></text>
    <text
       id="text845"
       y="34.367256"
       x="22.163113"
       style="font-style:normal;font-weight:normal;font-size:12.91690254px;line-height:1.25;font-family:sans-serif;letter-spacing:0px;word-spacing:0px;display:inline;fill:#c18824;fill-opacity:1;stroke:none;stroke-width:0.32292256"
       xml:space="preserve"><tspan
         style="font-style:normal;font-variant:normal;font-weight:normal;font-stretch:normal;font-size:6.45845127px;font-family:Chilanka;-inkscape-font-specification:'Chilanka, Normal';font-variant-ligatures:normal;font-variant-caps:normal;font-variant-numeric:normal;font-feature-settings:normal;text-align:start;writing-mode:lr-tb;text-anchor:start;fill:#c18824;fill-opacity:1;stroke-width:0.32292256"
         y="34.367256"
         x="22.163113"
         id="tspan843">Sweet True Honey</tspan></text>
  </g>
</svg>
